<svg width="73" height="73" viewBox="0 0 73 73" fill="none" xmlns="http://www.w3.org/2000/svg">
<path fill-rule="evenodd" clip-rule="evenodd" d="M36.4946 69.7635C45.3956 69.7635 53.9321 66.2276 60.2261 59.9336C66.5201 53.6396 70.056 45.1031 70.056 36.2021C70.056 27.301 66.5201 18.7645 60.2261 12.4705C53.9321 6.17655 45.3956 2.64063 36.4946 2.64062C27.5935 2.64063 19.057 6.17655 12.763 12.4705C6.46904 18.7645 2.93311 27.301 2.93311 36.2021C2.93311 45.1031 6.46904 53.6396 12.763 59.9336C19.057 66.2276 27.5935 69.7635 36.4946 69.7635ZM28.5082 50.023C27.7801 48.6302 27.3003 47.1213 27.0902 45.5638C26.7313 41.6472 26.4907 37.7207 26.3688 33.7896L26.2535 31.044L26.1884 28.1881L26.1583 26.174C26.0932 22.0605 26.0331 17.897 26.2535 13.7986C26.2548 13.7423 26.2781 13.6888 26.3184 13.6494C26.3586 13.6101 26.4127 13.5881 26.469 13.5881C27.3307 13.4645 28.1858 13.3543 29.0342 13.2574C30.2167 13.1121 31.3891 12.9719 32.5665 12.7714C32.6266 12.7681 32.655 12.7965 32.6517 12.8566C32.7368 22.6918 32.9523 32.507 33.5936 42.3422C33.6387 43.219 33.7038 44.186 33.9393 45.0027C34.5856 47.3625 36.0637 49.0159 38.3183 49.8977C39.2452 50.2635 40.1872 50.2434 41.1541 50.1783C42.6372 50.008 44.01 49.3266 45.0421 48.2443C45.0824 48.2052 45.1363 48.1832 45.1924 48.1832C45.2486 48.1832 45.3025 48.2052 45.3428 48.2443L50.4282 52.969C50.475 53.0158 50.475 53.0509 50.4282 53.0743C49.4426 54.0879 48.3659 55.0086 47.2116 55.8249C45.0507 57.203 42.5101 57.864 39.9517 57.7138C38.0537 57.8384 36.1636 57.3729 34.5406 56.3811L34.0445 56.0804C33.4583 55.7297 32.802 55.3389 32.2859 54.8579C30.6533 53.5785 29.3567 51.9158 28.5082 50.023ZM46.3498 46.2703C47.6375 43.204 47.1865 39.8321 44.8467 37.4271C44.2588 36.8379 43.5584 36.3728 42.7873 36.0595C42.0161 35.7462 41.1898 35.5911 40.3575 35.6034C38.2799 35.7136 36.2056 35.8639 34.1347 36.0543C34.0278 33.5825 33.9343 31.1125 33.8541 28.6441C33.8541 28.604 33.8742 28.5589 33.9393 28.5589C35.9267 28.3484 37.9158 28.1631 39.9066 28.0027C42.0057 27.8267 44.1148 28.196 46.0292 29.0749C47.9542 29.9704 49.6482 31.2957 50.9806 32.9486C52.3131 34.6016 53.2485 36.5383 53.715 38.6095C54.1859 41.4654 54.3613 44.191 53.6097 47.0469C53.0586 48.8806 52.1968 50.6042 51.0745 52.1574H51.0545L45.964 47.3475C45.9246 47.3093 45.8988 47.2591 45.8907 47.2048C45.8825 47.1505 45.8925 47.095 45.9189 47.0469C46.0692 46.8314 46.2196 46.5509 46.3498 46.2703ZM25.502 35.7136C25.4741 34.6533 25.4156 33.594 25.3266 32.5371C25.3032 32.183 25.2865 31.8005 25.2765 31.3897C25.2688 30.804 25.2353 30.2189 25.1763 29.6361C25.1699 29.5572 25.1326 29.484 25.0726 29.4324C25.0126 29.3808 24.9346 29.355 24.8557 29.3605L18.713 29.9818L18.5677 29.9968C18.1318 30.0369 17.3853 30.1021 17.3853 30.563C17.3452 32.4669 17.402 34.628 17.5557 37.0463C17.5557 37.2968 17.6843 37.4188 17.9414 37.4121C20.2929 37.1449 22.6478 36.9378 25.006 36.7908C25.502 36.7908 25.502 36.0994 25.502 35.7136Z" fill="#F18E1B"/>
<path fill-rule="evenodd" clip-rule="evenodd" d="M36.496 71.6072C45.8243 71.6072 54.7705 67.9016 61.3666 61.3055C67.9626 54.7094 71.6683 45.7632 71.6683 36.435C71.6683 27.1067 67.9626 18.1605 61.3666 11.5644C54.7705 4.96833 45.8243 1.2627 36.496 1.2627C27.1677 1.2627 18.2215 4.96833 11.6255 11.5644C5.02937 18.1605 1.32373 27.1067 1.32373 36.435C1.32373 45.7632 5.02937 54.7094 11.6255 61.3055C18.2215 67.9016 27.1677 71.6072 36.496 71.6072ZM36.496 70.2344C43.2295 70.2364 49.8123 68.2416 55.4121 64.5024C61.0118 60.7631 65.377 55.4473 67.9556 49.2272C70.5342 43.007 71.2105 36.1619 69.8988 29.5574C68.5871 22.953 65.3464 16.8858 60.5865 12.1231C55.8267 7.36046 49.7614 4.11621 43.1577 2.80063C36.554 1.48505 29.7085 2.15724 23.4868 4.73219C17.2652 7.30714 11.9468 11.6692 8.20425 17.2668C4.46169 22.8643 2.46305 29.446 2.46107 36.1794C2.46107 45.2061 6.04688 53.863 12.4297 60.2458C18.8125 66.6286 27.4694 70.2144 36.496 70.2144V70.2344Z" fill="#F18E1B"/>
<path fill-rule="evenodd" clip-rule="evenodd" d="M73 36.5C73 46.1804 69.1545 55.4643 62.3094 62.3094C55.4643 69.1545 46.1804 73 36.5 73C26.8196 73 17.5357 69.1545 10.6906 62.3094C3.84553 55.4643 0 46.1804 0 36.5C0 26.8196 3.84553 17.5357 10.6906 10.6906C17.5357 3.84553 26.8196 0 36.5 0C46.1804 0 55.4643 3.84553 62.3094 10.6906C69.1545 17.5357 73 26.8196 73 36.5ZM36.495 72.0781C42.357 72.0796 48.1288 70.6351 53.299 67.8726C58.4693 65.1101 62.8782 61.1149 66.1353 56.2411C69.3923 51.3672 71.3967 45.7652 71.971 39.9314C72.5453 34.0976 71.6717 28.2123 69.4277 22.7968C67.183 17.3821 63.6379 12.6044 59.1063 8.88651C54.5747 5.16867 49.1963 2.62545 43.4474 1.482C37.6984 0.338556 31.7563 0.630156 26.1469 2.33099C20.5375 4.03182 15.434 7.08941 11.2882 11.2331C6.30554 16.2184 2.91283 22.5691 1.53897 29.4824C0.165116 36.3957 0.871792 43.561 3.56967 50.0727C6.26754 56.5844 10.8355 62.15 16.696 66.066C22.5566 69.9819 29.4465 72.0774 36.495 72.0781Z" fill="#F18E1B"/>
</svg>
